<?xml version="1.0" encoding="UTF-8"?>
<svg xmlns="http://www.w3.org/2000/svg" width="200" height="100" viewBox="0 0 200 100" preserveAspectRatio="xMidYMid meet">
  <!-- Main puddle shape -->
  <path d="M40,60
           C30,55 25,45 35,40
           C45,35 60,30 75,35   <!-- river mouth 1 -->
           C90,40 110,45 120,40
           C130,35 145,50 140,60 <!-- river mouth 2 -->
           C135,70 120,75 105,70  
           C95,65 85,75 70,70   <!-- river mouth 3 -->
           C55,65 45,70 40,60 Z"
        fill="#6B4226" />
  <!-- Droplets around the puddle -->
  <circle cx="30" cy="30" r="4" fill="#6B4226" />
  <circle cx="160" cy="25" r="6" fill="#6B4226" />
  <circle cx="170" cy="60" r="5" fill="#6B4226" />
  <circle cx="120" cy="15" r="3" fill="#6B4226" />
  <circle cx="50" cy="80" r="5" fill="#6B4226" />
</svg>
